<svg xmlns="http://www.w3.org/2000/svg" width="991" height="293" viewBox="0 0 991 293"><path fill-rule="evenodd" clip-rule="evenodd" fill="#6D6E70" d="M7.036 243.535H21.85v36.588h3.853v-36.588h14.815v-3.56H7.036v3.56zm81.047-4.014c-4.963 0-10.667.53-14.52 4.394-4.295 4.318-4.888 11.438-4.888 15.908 0 8.71 2.37 13.635 4.89 16.21 4.295 4.317 11.036 4.544 14.518 4.544s10.222-.227 14.52-4.545c2.518-2.573 4.888-7.497 4.888-16.208 0-4.47-.592-11.59-4.888-15.908-3.852-3.863-9.556-4.393-14.52-4.393zm12.074 33.634c-3.11 3.484-8.074 3.863-12.074 3.863s-8.963-.38-12.074-3.863c-3.26-3.637-3.186-9.697-3.186-12.953 0-3.485 0-9.847 3.11-13.407 3.038-3.408 8.445-3.713 12.15-3.713s9.11.305 12.147 3.713c3.112 3.56 3.112 9.922 3.112 13.408 0 3.257.075 9.318-3.185 12.954zm56.087-33.18h-9.926c-1.11 0-2.89.077-4.37 1.214-.593.453-1.852 1.666-1.852 3.787V293h3.852v-12.877h11.11c6.372 0 10.816-1.213 13.927-5.984 2.815-4.396 3.11-9.622 3.11-14.696 0-4.773-.147-10.53-4.147-14.848-3.852-4.242-9.11-4.62-11.704-4.62zm9.482 32.044c-2 3.105-5.555 4.545-9.11 4.545h-12.668v-31.057c0-.53.074-.986.593-1.44.297-.228.815-.53 1.186-.53h11.333c3.555 0 7.63 1.592 9.48 5.832.89 2.047 1.408 5.076 1.408 10.605 0 5.226-.445 9.242-2.222 12.045zm39.566-30.15c-.667 1.138-.592 2.65-.592 3.864v34.39h3.852v-33.708c0-.53 0-1.666.444-2.273.223-.302.74-.604 1.63-.604h23.556v-3.56h-25.038c-1.333 0-2.962.3-3.852 1.893zm76.456-2.347c-4.963 0-10.667.53-14.52 4.394-4.295 4.318-4.888 11.438-4.888 15.908 0 8.71 2.37 13.635 4.89 16.21 4.295 4.317 11.037 4.544 14.518 4.544s10.222-.227 14.52-4.545c2.518-2.573 4.888-7.497 4.888-16.208 0-4.47-.593-11.59-4.89-15.908-3.852-3.863-9.556-4.393-14.518-4.393zm12.074 33.634c-3.11 3.484-8.074 3.863-12.074 3.863s-8.963-.38-12.074-3.863c-3.26-3.637-3.186-9.697-3.186-12.953 0-3.485 0-9.847 3.11-13.407 3.038-3.408 8.445-3.713 12.15-3.713 3.703 0 9.11.305 12.147 3.713 3.11 3.56 3.11 9.922 3.11 13.408.002 3.257.076 9.318-3.183 12.954zm69.42-16.363c1.407-1.817 1.48-4.013 1.48-6.058 0-2.426-.295-5.682-2-7.803-2.147-2.728-5.63-2.956-7.258-2.956h-17.11c-1.187 0-2.52.53-3.334 1.363-.74.758-1.26 2.047-1.26 3.41v30.602c0 1.212.075 2.5.964 3.483.667.758 1.926 1.29 3.26 1.29h18.222c1.778 0 4-.38 5.926-2.5 2.444-2.728 2.593-6.364 2.593-9.696 0-2.047 0-4.242-1.333-6.06-.815-1.138-2.148-2.198-4.074-2.577v-.15c2.072-.304 3.257-1.44 3.924-2.35zm-2.667 11.82c0 2.044 0 4.468-1.407 6.21-1.333 1.666-3.037 1.742-5.185 1.742h-14c-.74 0-1.407 0-1.926-.605-.37-.455-.444-1.213-.444-1.895v-13.105h17.185c1.556 0 3.11.305 4.37 1.818 1.407 1.743 1.407 4.092 1.407 5.834zm-1.48-12.88c-1.26 1.516-2.668 1.668-4.297 1.668h-17.185v-12.424c0-.303.148-.834.37-1.06s.89-.38 1.185-.38h15.63c1.11 0 2.815.076 4.148 1.363 1.63 1.516 1.63 3.863 1.63 5.38 0 1.82-.075 3.864-1.482 5.453zm74.084 24.393h3.85v-40.148h-3.85v40.148zm-13.853-22.953H401.18v-17.195h-3.853v35.527c0 1.287 0 2.727.963 3.71.89.91 2.148.91 3.26.91h17.036c2.667 0 5.186 0 7.26-1.97 2.667-2.574 2.89-7.574 2.89-9.922 0-2.652-.297-6.287-2.742-8.71-2.148-2.122-4.963-2.35-6.667-2.35zm4 17.498c-1.185 1.742-2.74 1.895-4 1.895H403.03c-.52 0-1.26.076-1.63-.53-.147-.304-.22-1.44-.22-1.817V260.73h18.147c.963 0 2.667.152 3.926 1.742 1.26 1.666 1.333 4.242 1.333 5.682 0 3.94-.592 5.606-1.26 6.514zm56.9-39.314c2.15 1.895 4.89 2.426 7.558 2.426 2.666 0 5.406-.53 7.555-2.426 1.778-1.514 3.038-4.014 3.63-5.982h-4.445c-.37 1.21-1.186 2.574-1.926 3.256-.964.91-2.594 1.516-4.815 1.516-2.223 0-3.853-.605-4.815-1.516-.74-.682-1.556-2.045-1.927-3.256H476.6c.59 1.968 1.85 4.468 3.628 5.982zm20.298 4.167c-1.777 0-3.11.833-4.074 2.425l-20.222 32.95c-.296.53-.52.985-.814.985-.444 0-.444-.605-.444-.984v-34.922h-3.853v36.436c0 2.652 1.334 4.166 3.557 4.166 1.926 0 2.963-.908 4.222-2.877l20-32.5c.52-.83.742-.907.816-.907.443 0 .37.455.37.908v34.923h3.85V244.14c0-1.134-.075-4.62-3.407-4.62zm107.723.455h-21.482c-2.443 0-3.555 1.06-4 1.742-.74 1.137-.814 2.803-.814 4.092v34.313h3.852V245.81c0-.683.074-1.593.37-1.896.224-.227.964-.38 1.26-.38h20.15c.294 0 1.036.153 1.257.38.298.303.372 1.213.372 1.895v34.313h3.852V245.81c0-1.29-.074-2.956-.814-4.093-.445-.682-1.557-1.742-4.002-1.742zm56.826-.454c-4.963 0-10.666.53-14.52 4.394-4.295 4.318-4.89 11.438-4.89 15.908 0 8.71 2.372 13.635 4.89 16.21 4.297 4.317 11.037 4.544 14.52 4.544s10.223-.227 14.52-4.545c2.518-2.573 4.89-7.497 4.89-16.208 0-4.47-.595-11.59-4.89-15.908-3.854-3.863-9.557-4.393-14.52-4.393zm12.074 33.634c-3.11 3.484-8.074 3.863-12.074 3.863s-8.963-.38-12.074-3.863c-3.26-3.637-3.186-9.697-3.186-12.953 0-3.485 0-9.847 3.11-13.407 3.038-3.408 8.446-3.713 12.15-3.713s9.11.305 12.147 3.713c3.112 3.56 3.112 9.922 3.112 13.408.002 3.257.076 9.318-3.184 12.954zm56.086-33.18h-9.926c-1.11 0-2.89.077-4.37 1.214-.593.453-1.85 1.666-1.85 3.787V293h3.85v-12.877h11.112c6.37 0 10.814-1.213 13.926-5.984 2.814-4.396 3.11-9.622 3.11-14.696 0-4.773-.147-10.53-4.147-14.848-3.852-4.242-9.112-4.62-11.706-4.62zm9.483 32.044c-2 3.105-5.555 4.545-9.11 4.545H720.94v-31.057c0-.53.074-.986.592-1.44.297-.228.814-.53 1.186-.53h11.334c3.555 0 7.63 1.592 9.48 5.832.89 2.047 1.408 5.076 1.408 10.605 0 5.226-.446 9.242-2.223 12.045zm34.53-28.483h14.815v36.588h3.852v-36.588h14.814v-3.56h-33.482v3.56zm83.862-3.56h-19.26v3.56h19.036c1.852 0 3.334.835 4.148 1.82.963 1.21 1.482 3.483 1.482 4.77v5.984h-17.04c-2.22 0-5.183.302-7.33 2.12-2.815 2.424-3.26 6.21-3.26 9.47 0 2.423.222 7.878 3.48 10.604 2.147 1.742 4.89 1.818 7.11 1.818h15.11c1.335 0 3.26 0 4.446-1.137 1.26-1.213 1.334-3.105 1.334-4.166v-24.015c0-2.424-.297-5.756-2.37-8.03-1.553-1.74-4.22-2.8-6.887-2.8zm5.408 34.77c0 .53 0 .907-.52 1.362-.518.455-1.26.455-1.703.455H848.44c-1.628 0-3.036-.758-3.85-1.742-1.333-1.666-1.556-4.545-1.556-6.97 0-2.802.297-4.923 1.26-6.212.592-.832 2-1.97 4.295-1.97h17.927v15.076zm55.195-32.044c-1.186-2.952-3.11-3.18-3.852-3.18s-2.665.228-3.85 3.18l-14.743 37.423h4.37l13.483-35.148c.148-.455.37-1.213.74-1.213s.592.758.74 1.213l13.482 35.148h4.37l-14.74-37.422z"/><path fill="none" d="M386.963 72.13c-12.804 0-18.257 5.088-20.628 8.237-1.66 2.423-4.505 7.995-4.505 23.014 0 14.052 2.608 19.866 4.505 22.53.95 1.453 6.402 8.72 20.628 8.72 12.567 0 18.257-5.57 20.392-8.72 3.793-5.33 4.742-13.323 4.742-22.53 0-13.565-2.134-19.622-4.505-23.013-2.37-3.15-7.824-8.236-20.63-8.236zM771.258 75.99h-20.902v47.444c0 2.113 0 6.81 2.348 9.16 2.35 2.113 6.107 2.113 8.22 2.113h9.396c9.158 0 13.387-3.287 15.97-8.455 1.41-3.053 3.288-8.69 3.288-21.138 0-11.744-2.113-17.38-3.053-19.494-3.996-8.925-11.51-9.63-15.267-9.63zM539.303 73.584h-16.36c-.948 0-3.08.97-3.794 1.696-.948.97-1.66 2.907-1.66 4.36v53.54h20.392c10.195 0 15.176-5.815 17.31-9.933 2.608-5.088 2.845-11.87 2.845-20.107 0-7.268-.236-13.566-2.135-18.653-4.03-10.418-13.754-10.903-16.6-10.903z"/><linearGradient id="a" gradientUnits="userSpaceOnUse" x1="78.483" y1="169.578" x2="78.483" y2=".001"><stop offset="0" stop-color="#FBB017"/><stop offset=".286" stop-color="#FBB216"/><stop offset=".361" stop-color="#FCB614"/><stop offset=".361" stop-color="#FCB816"/><stop offset=".361" stop-color="#FBBF1D"/><stop offset=".362" stop-color="#FBC11F"/><stop offset="1" stop-color="#FFC92B"/></linearGradient><path fill="url(#a)" d="M122.585 72.192l-55.958-15.26c-6.402-1.697-13.99-3.877-13.99-9.207 0-1.938 1.187-3.876 2.61-4.603.948-.484 2.607-.97 8.772-.97h84.41V0H38.885C24.66 0 15.65 5.33 10.433 10.66.71 20.592 0 33.917 0 44.576c0 12.597 1.186 27.132 9.01 37.792 3.32 4.603 9.247 10.175 18.97 12.84l64.255 18.41c5.454 1.455 10.67 3.15 10.67 8.48 0 2.424-1.423 5.33-9.248 5.33H1.66v42.152h113.812c11.38 0 23.948-.242 33.433-13.082 7.587-10.174 8.062-23.74 8.062-33.673 0-11.627-.95-28.343-11.38-38.76-5.93-6.058-15.65-9.934-23.002-11.873z"/><linearGradient id="b" gradientUnits="userSpaceOnUse" x1="235.931" y1="189.578" x2="235.931" y2="20.001"><stop offset="0" stop-color="#FBB017"/><stop offset=".378" stop-color="#FBB216"/><stop offset=".478" stop-color="#FCB614"/><stop offset=".478" stop-color="#FCB816"/><stop offset=".478" stop-color="#FBBF1D"/><stop offset=".479" stop-color="#FBC11F"/><stop offset="1" stop-color="#FFC92B"/></linearGradient><path fill="url(#b)" d="M285.605 50.632c-13.278-9.932-28.216-9.448-42.442-9.448H215.42V0H168.95v169.578h46.473V74.615h14.702c6.402 0 13.515 1.21 19.206 7.51 6.64 7.025 7.113 15.99 7.113 22.045v65.408h46.474v-83.82c0-12.596-5.69-26.405-17.31-35.126z"/><linearGradient id="c" gradientUnits="userSpaceOnUse" x1="386.963" y1="170.031" x2="386.963" y2="38.731"><stop offset="0" stop-color="#FBB017"/><stop offset=".378" stop-color="#FBB216"/><stop offset=".478" stop-color="#FCB614"/><stop offset=".478" stop-color="#FCB816"/><stop offset=".478" stop-color="#FBBF1D"/><stop offset=".479" stop-color="#FBC11F"/><stop offset="1" stop-color="#FFC92B"/></linearGradient><path fill="url(#c)" d="M442.92 51.812c-13.75-12.355-36.04-13.082-55.957-13.082s-42.205.727-55.958 13.082c-15.65 14.293-16.598 39.73-16.598 52.57 0 12.84.95 38.276 16.598 52.57 13.752 12.353 36.04 13.08 55.958 13.08s42.206-.728 55.958-13.08c15.65-14.294 16.6-39.73 16.6-52.57 0-12.84-.95-38.277-16.6-52.57zm-35.565 75.1c-2.134 3.15-7.825 8.72-20.392 8.72-14.226 0-19.68-7.268-20.628-8.72-1.897-2.665-4.505-8.48-4.505-22.53 0-15.02 2.845-20.59 4.505-23.014 2.37-3.15 7.825-8.236 20.628-8.236 12.804 0 18.257 5.087 20.628 8.236 2.372 3.392 4.506 9.448 4.506 23.014 0 9.205-.948 17.2-4.74 22.53z"/><linearGradient id="d" gradientUnits="userSpaceOnUse" x1="538.236" y1="187.762" x2="538.236" y2="18.185"><stop offset="0" stop-color="#FBB017"/><stop offset=".378" stop-color="#FBB216"/><stop offset=".478" stop-color="#FCB614"/><stop offset=".478" stop-color="#FCB816"/><stop offset=".478" stop-color="#FBBF1D"/><stop offset=".479" stop-color="#FBC11F"/><stop offset="1" stop-color="#FFC92B"/></linearGradient><path fill="url(#d)" d="M555.664 40.184h-58.328c-5.928 0-12.093.484-17.784 4.603-7.35 5.33-8.535 12.598-8.535 19.865v145.11h46.473v-41.184h34.38c13.04 0 32.01-1.21 43.392-17.684 9.72-14.292 10.195-39.246 10.195-50.39 0-12.354-.95-33.672-13.516-46.997-11.618-12.354-27.977-13.323-36.276-13.323zm-.475 84.063c-2.134 4.117-7.114 9.932-17.31 9.932h-20.39V80.64c0-1.453.71-3.39 1.658-4.36.713-.727 2.846-1.696 3.795-1.696h16.36c2.845 0 12.567.485 16.597 10.902 1.898 5.087 2.135 11.386 2.135 18.653 0 8.235-.236 15.02-2.846 20.107z"/><linearGradient id="e" gradientUnits="userSpaceOnUse" x1="770.436" y1="183.059" x2="770.436" y2="18.651"><stop offset="0" stop-color="#FBB017"/><stop offset=".378" stop-color="#FBB216"/><stop offset=".478" stop-color="#FCB614"/><stop offset=".478" stop-color="#FCB816"/><stop offset=".478" stop-color="#FBBF1D"/><stop offset=".479" stop-color="#FBC11F"/><stop offset="1" stop-color="#FFC92B"/></linearGradient><path fill="url(#e)" d="M783.705 43.58h-33.35V3.65h-46.03v141.862c0 5.87 1.173 10.805 5.4 15.268 6.106 6.576 13.856 7.28 19.962 7.28h54.72c12.214 0 32.882-2.114 43.92-20.67 5.167-8.688 8.22-21.137 8.22-41.805 0-12.683-.47-28.89-8.455-41.807-11.742-19.26-31.237-20.2-44.387-20.2zm2.582 82.672c-2.582 5.168-6.81 8.455-15.97 8.455h-9.394c-2.113 0-5.87 0-8.22-2.113-2.35-2.35-2.35-7.047-2.35-9.16V75.99h20.903c3.758 0 11.27.706 15.266 9.63.94 2.115 3.053 7.75 3.053 19.495 0 12.448-1.878 18.085-3.288 21.137z"/><linearGradient id="f" gradientUnits="userSpaceOnUse" x1="910.064" y1="187.223" x2="910.064" y2="22.579"><stop offset="0" stop-color="#FBB017"/><stop offset=".378" stop-color="#FBB216"/><stop offset=".478" stop-color="#FCB614"/><stop offset=".478" stop-color="#FCB816"/><stop offset=".478" stop-color="#FBBF1D"/><stop offset=".479" stop-color="#FBC11F"/><stop offset="1" stop-color="#FFC92B"/></linearGradient><path fill="url(#f)" d="M944.12 46.58l-34.524 78.915L876.95 46.58h-46.97l59.182 124.48-19.492 40.163h46.03L990.15 46.58z"/><path fill-rule="evenodd" clip-rule="evenodd" fill="#A2DDF8" d="M616.4 120.766l-36.336 24.324c-.81.486-1.135.81-1.46 1.62-.323.487-.323 1.46-.323 1.946.325.81.487 1.623.974 1.785l35.523 42c.648.65 1.137.974 1.947 1.136l46.715 11.838c.65.162 1.298.162 1.784 0 .486 0 1.135-.324 1.785-.975l34.548-32.108c.488-.486.975-.973 1.137-1.783l11.516-55.46v-2.107c-.485-.812-.81-1.298-1.62-1.784-.648-.65-1.46-.812-2.11-.65l-34.712.974c-25.143 1.62-39.416 4.7-59.368 9.242z"/><path fill-rule="evenodd" clip-rule="evenodd" fill="#009EDE" d="M664.9 205.576c.648 0 1.46-.486 2.11-1.137l34.548-32.108c.488-.486.975-.973 1.137-1.783l11.516-55.46c0-.81-.16-2.107-.16-2.756-20.276 18.16-48.015 42.97-55.314 49.62 1.948 13.46 3.893 28.054 6.164 43.622z"/><path fill-rule="evenodd" clip-rule="evenodd" fill="#CC442E" d="M626.78 136.657l-20.598 14.757.324.81 23.844 42.487 12.814 2.757-6.326-40.863 16.22-15.73 24.008 4.864 4.38 42.162 7.95-7.623 1.782-47.835-25.305-3.082 15.734-15.73-9.246.163 13.79-29.027-18.816 4.703-14.275-12.325-9.734 37.135-16.383-47.028-11.84 16.865-19.953 2.92 27.252 39.08-9.732-.812-10.87 7.623z"/></svg>